<?xml version="1.0" encoding="us-ascii" standalone="no"?><svg xmlns="http://www.w3.org/2000/svg" xmlns:xlink="http://www.w3.org/1999/xlink" contentStyleType="text/css" height="552px" preserveAspectRatio="none" style="width:861px;height:552px;background:#FFFFFF;" version="1.1" viewBox="0 0 861 552" width="861px" zoomAndPan="magnify"><defs/><g><!--cluster Docker Compose--><g id="cluster_Docker Compose"><path d="M38,159 L172,159 A3.75,3.75 0 0 1 174.5,161.5 L181.5,181.2969 L389,181.2969 A2.5,2.5 0 0 1 391.5,183.7969 L391.5,481.5 A2.5,2.5 0 0 1 389,484 L38,484 A2.5,2.5 0 0 1 35.5,481.5 L35.5,161.5 A2.5,2.5 0 0 1 38,159 " fill="none" style="stroke:#000000;stroke-width:1.5;"/><line style="stroke:#000000;stroke-width:1.5;" x1="35.5" x2="181.5" y1="181.2969" y2="181.2969"/><text fill="#000000" font-family="sans-serif" font-size="14" font-weight="bold" lengthAdjust="spacing" textLength="133" x="39.5" y="173.9951">Docker Compose</text></g><!--cluster M?quina Host--><g id="cluster_M&#225;quina Host"><path d="M38,6 L151,6 A3.75,3.75 0 0 1 153.5,8.5 L160.5,28.2969 L246,28.2969 A2.5,2.5 0 0 1 248.5,30.7969 L248.5,116.5 A2.5,2.5 0 0 1 246,119 L38,119 A2.5,2.5 0 0 1 35.5,116.5 L35.5,8.5 A2.5,2.5 0 0 1 38,6 " fill="none" style="stroke:#000000;stroke-width:1.5;"/><line style="stroke:#000000;stroke-width:1.5;" x1="35.5" x2="160.5" y1="28.2969" y2="28.2969"/><text fill="#000000" font-family="sans-serif" font-size="14" font-weight="bold" lengthAdjust="spacing" textLength="112" x="39.5" y="20.9951">M&#225;quina Host</text></g><!--entity app--><g id="elem_app"><rect fill="#F1F1F1" height="46.2969" rx="2.5" ry="2.5" style="stroke:#181818;stroke-width:0.5;" width="140" x="180.5" y="202"/><rect fill="#F1F1F1" height="10" style="stroke:#181818;stroke-width:0.5;" width="15" x="300.5" y="207"/><rect fill="#F1F1F1" height="2" style="stroke:#181818;stroke-width:0.5;" width="4" x="298.5" y="209"/><rect fill="#F1F1F1" height="2" style="stroke:#181818;stroke-width:0.5;" width="4" x="298.5" y="213"/><text fill="#000000" font-family="sans-serif" font-size="14" lengthAdjust="spacing" textLength="100" x="195.5" y="234.9951">micael-finapp</text></g><!--entity db--><g id="elem_db"><rect fill="#F1F1F1" height="46.2969" rx="2.5" ry="2.5" style="stroke:#181818;stroke-width:0.5;" width="99" x="68" y="308"/><rect fill="#F1F1F1" height="10" style="stroke:#181818;stroke-width:0.5;" width="15" x="147" y="313"/><rect fill="#F1F1F1" height="2" style="stroke:#181818;stroke-width:0.5;" width="4" x="145" y="315"/><rect fill="#F1F1F1" height="2" style="stroke:#181818;stroke-width:0.5;" width="4" x="145" y="319"/><text fill="#000000" font-family="sans-serif" font-size="14" lengthAdjust="spacing" textLength="59" x="83" y="340.9951">MariaDB</text></g><!--entity volume_app--><g id="elem_volume_app"><rect fill="#F1F1F1" height="46.2969" rx="2.5" ry="2.5" style="stroke:#181818;stroke-width:0.5;" width="128" x="239.5" y="308"/><rect fill="#F1F1F1" height="10" style="stroke:#181818;stroke-width:0.5;" width="15" x="347.5" y="313"/><rect fill="#F1F1F1" height="2" style="stroke:#181818;stroke-width:0.5;" width="4" x="345.5" y="315"/><rect fill="#F1F1F1" height="2" style="stroke:#181818;stroke-width:0.5;" width="4" x="345.5" y="319"/><text fill="#000000" font-family="sans-serif" font-size="14" lengthAdjust="spacing" textLength="88" x="254.5" y="340.9951">Volume App</text></g><!--entity volume_db--><g id="elem_volume_db"><rect fill="#F1F1F1" height="46.2969" rx="2.5" ry="2.5" style="stroke:#181818;stroke-width:0.5;" width="119" x="68" y="414"/><rect fill="#F1F1F1" height="10" style="stroke:#181818;stroke-width:0.5;" width="15" x="167" y="419"/><rect fill="#F1F1F1" height="2" style="stroke:#181818;stroke-width:0.5;" width="4" x="165" y="421"/><rect fill="#F1F1F1" height="2" style="stroke:#181818;stroke-width:0.5;" width="4" x="165" y="425"/><text fill="#000000" font-family="sans-serif" font-size="14" lengthAdjust="spacing" textLength="79" x="83" y="446.9951">Volume DB</text></g><!--entity network--><g id="elem_network"><rect fill="#F1F1F1" height="46.2969" rx="2.5" ry="2.5" style="stroke:#181818;stroke-width:0.5;" width="133" x="222" y="414"/><rect fill="#F1F1F1" height="10" style="stroke:#181818;stroke-width:0.5;" width="15" x="335" y="419"/><rect fill="#F1F1F1" height="2" style="stroke:#181818;stroke-width:0.5;" width="4" x="333" y="421"/><rect fill="#F1F1F1" height="2" style="stroke:#181818;stroke-width:0.5;" width="4" x="333" y="425"/><text fill="#000000" font-family="sans-serif" font-size="14" lengthAdjust="spacing" textLength="93" x="237" y="446.9951">Rede Interna</text></g><!--entity Docker Engine--><g id="elem_Docker Engine"><rect fill="#F1F1F1" height="46.2969" rx="2.5" ry="2.5" style="stroke:#181818;stroke-width:0.5;" width="145" x="79" y="49"/><rect fill="#F1F1F1" height="10" style="stroke:#181818;stroke-width:0.5;" width="15" x="204" y="54"/><rect fill="#F1F1F1" height="2" style="stroke:#181818;stroke-width:0.5;" width="4" x="202" y="56"/><rect fill="#F1F1F1" height="2" style="stroke:#181818;stroke-width:0.5;" width="4" x="202" y="60"/><text fill="#000000" font-family="sans-serif" font-size="14" lengthAdjust="spacing" textLength="105" x="94" y="81.9951">Docker Engine</text></g><g id="elem_GMN16"><path d="M415.5,205 L415.5,221 L320.883,225 L415.5,229 L415.5,245.2656 A0,0 0 0 0 415.5,245.2656 L547.5,245.2656 A0,0 0 0 0 547.5,245.2656 L547.5,215 L537.5,205 L415.5,205 A0,0 0 0 0 415.5,205 " fill="#FEFFDD" style="stroke:#181818;stroke-width:0.5;"/><path d="M537.5,205 L537.5,215 L547.5,215 L537.5,205 " fill="#FEFFDD" style="stroke:#181818;stroke-width:0.5;"/><text fill="#000000" font-family="sans-serif" font-size="13" lengthAdjust="spacing" textLength="111" x="421.5" y="222.0669">Container do App</text><text fill="#000000" font-family="sans-serif" font-size="13" lengthAdjust="spacing" textLength="110" x="421.5" y="237.1997">Node.js / Express</text></g><g id="elem_GMN19"><path d="M416,311 L416,351.2656 L627,351.2656 L627,321 L617,311 L416,311 " fill="#FEFFDD" style="stroke:#181818;stroke-width:0.5;"/><path d="M617,311 L617,321 L627,321 L617,311 " fill="#FEFFDD" style="stroke:#181818;stroke-width:1.0;"/><text fill="#000000" font-family="sans-serif" font-size="13" lengthAdjust="spacing" textLength="190" x="422" y="328.0669">Container do Banco de Dados</text><text fill="#000000" font-family="sans-serif" font-size="13" lengthAdjust="spacing" textLength="52" x="422" y="343.1997">MariaDB</text></g><g id="elem_GMN22"><path d="M416,424.5 L416,449.6328 A0,0 0 0 0 416,449.6328 L647,449.6328 A0,0 0 0 0 647,449.6328 L647,434.5 L637,424.5 L510.153,424.5 L351.853,354.056 L502.153,424.5 L416,424.5 A0,0 0 0 0 416,424.5 " fill="#FEFFDD" style="stroke:#181818;stroke-width:0.5;"/><path d="M637,424.5 L637,434.5 L647,434.5 L637,424.5 " fill="#FEFFDD" style="stroke:#181818;stroke-width:0.5;"/><text fill="#000000" font-family="sans-serif" font-size="13" lengthAdjust="spacing" textLength="210" x="422" y="441.5669">Volume para a Aplica&#231;&#227;o Node.js</text></g><g id="elem_GMN25"><path d="M6,520 L6,545.1328 A0,0 0 0 0 6,545.1328 L249,545.1328 A0,0 0 0 0 249,545.1328 L249,530 L239,520 L131.5,520 L127.5,460.1582 L123.5,520 L6,520 A0,0 0 0 0 6,520 " fill="#FEFFDD" style="stroke:#181818;stroke-width:0.5;"/><path d="M239,520 L239,530 L249,530 L239,520 " fill="#FEFFDD" style="stroke:#181818;stroke-width:0.5;"/><text fill="#000000" font-family="sans-serif" font-size="13" lengthAdjust="spacing" textLength="222" x="12" y="537.0669">Volume para os Dados do MariaDB</text></g><g id="elem_GMN28"><path d="M682.5,424.5 L682.5,449.6328 L854.5,449.6328 L854.5,434.5 L844.5,424.5 L682.5,424.5 " fill="#FEFFDD" style="stroke:#181818;stroke-width:0.5;"/><path d="M844.5,424.5 L844.5,434.5 L854.5,434.5 L844.5,424.5 " fill="#FEFFDD" style="stroke:#181818;stroke-width:1.0;"/><text fill="#000000" font-family="sans-serif" font-size="13" lengthAdjust="spacing" textLength="151" x="688.5" y="441.5669">Rede Interna do Docker</text></g><!--link app to db--><!--link app to volume_app--><g id="link_app_volume_app"><path d="M261.74,248.056 C270.734,265.705 283.286,290.335 292.276,307.976 " fill="none" id="app-volume_app" style="stroke:#181818;stroke-width:1.0;"/></g><!--link db to volume_db--><g id="link_db_volume_db"><path d="M119.621,354.056 C121.318,371.705 123.686,396.335 125.382,413.976 " fill="none" id="db-volume_db" style="stroke:#181818;stroke-width:1.0;"/></g><!--link app to network--><g id="link_app_network"><path d="M238.018,248.195 C225.15,274.087 208.643,317.944 221.5,354 C229.774,377.203 247.743,398.583 262.991,413.69 " fill="none" id="app-network" style="stroke:#181818;stroke-width:1.0;"/></g><!--link db to network--><g id="link_db_network"><path d="M153.765,354.056 C182.784,371.705 223.282,396.335 252.288,413.976 " fill="none" id="db-network" style="stroke:#181818;stroke-width:1.0;"/></g><!--link M?quina Host to Docker Compose--><g id="link_M&#225;quina Host_Docker Compose"><path d="M43.5,119.2209 C43.5,119.4867 43.5,119.753 43.5,120.0199 C43.5,120.5536 43.5,121.0896 43.5,121.6277 C43.5,130.237 43.5,139.3825 43.5,148.5274 C43.5,150.8136 43.5,153.0998 43.5,155.3776 C43.5,156.5165 43.5,157.6532 43.5,158.7869 " fill="none" id="M&#225;quina Host-Docker Compose" style="stroke:#181818;stroke-width:1.0;"/></g><!--link db to GMN19--><g id="link_db_GMN19"><path d="M158.815,307.906 C181.686,296.445 211.065,283.828 239,278 C294.255,266.473 310.315,268.771 366,278 C403.986,284.296 445.152,298.69 475.58,310.891 " fill="none" id="db-GMN19" style="stroke:#181818;stroke-width:1.0;stroke-dasharray:7.0,7.0;"/></g><!--link network to GMN28--><g id="link_network_GMN28"><path d="M331.987,413.898 C356.025,402.434 386.85,389.817 416,384 C516.681,363.907 546.497,363.034 647,384 C683.946,391.708 723.419,411.291 747.018,424.371 " fill="none" id="network-GMN28" style="stroke:#181818;stroke-width:1.0;stroke-dasharray:7.0,7.0;"/></g><!--SRC=[TL6nJiCm4Dtz5QVkWPsDaaemb8619OtG9RwcQHAViLr0GdmCOk13ycFOYGD99IRhxhrtx-vPOzbWHR1AkMp8m0rtcYsju5q0P5rT8hN9lbQeTGvemRy1sAAfCLqFBLc4pYEtfuxWEl9UXl8fqYCO1H4RTGya2UwK8wDmG1MvLpQDyA1NGv8TQYb9vSbeDFIIvNnPp5fprZHheaprXn1wEdpRVpwV_85mozR5ksCO6rNLYl90pnQqF0pBbf7bGYXs1AQk3WvuF-nmvL7bq4yn83cairFtBEdYQE4IDc_QaBLdEh_gcMoDgcJmEQKesUvKJ7_K5UmSTq7ubuaV42FNQ13G6xV-A_ll_eiX-l-Z7jpdOhQZRLXaOVoxS4pLw-QV6VXZGZy0]--></g></svg>