<?xml version="1.0" encoding="us-ascii" standalone="no"?><svg xmlns="http://www.w3.org/2000/svg" xmlns:xlink="http://www.w3.org/1999/xlink" contentStyleType="text/css" height="571px" preserveAspectRatio="none" style="width:553px;height:571px;background:#FFFFFF;" version="1.1" viewBox="0 0 553 571" width="553px" zoomAndPan="magnify"><defs/><g><!--class Categoria--><g id="elem_Categoria"><rect codeLine="1" fill="#F1F1F1" height="80.5938" id="Categoria" rx="2.5" ry="2.5" style="stroke:#181818;stroke-width:0.5;" width="162" x="7" y="39.5"/><ellipse cx="49" cy="55.5" fill="#ADD1B2" rx="11" ry="11" style="stroke:#181818;stroke-width:1.0;"/><path d="M47.7969,56.375 L49.25,56.375 L49.25,56.4844 C49.25,56.8906 49.2813,57.0469 49.3594,57.2031 C49.5156,57.4531 49.7969,57.6094 50.0938,57.6094 C50.3438,57.6094 50.6094,57.4688 50.7656,57.25 C50.8906,57.0938 50.9219,56.9375 50.9219,56.4844 L50.9219,54.5625 C50.9219,54.4063 50.9219,54.3594 50.9063,54.2031 C50.8438,53.7344 50.5313,53.4219 50.0781,53.4219 C49.8281,53.4219 49.5625,53.5625 49.3906,53.7813 C49.2813,53.9531 49.25,54.1094 49.25,54.5625 L49.25,54.6875 L47.7969,54.6875 L47.7969,52.2813 L51.7813,52.2813 L51.7813,53.1406 C51.7813,53.5469 51.8125,53.7188 51.8906,53.875 C52.0625,54.125 52.3438,54.2813 52.625,54.2813 C52.8906,54.2813 53.1563,54.1406 53.3281,53.9219 C53.4375,53.75 53.4688,53.6094 53.4688,53.1406 L53.4688,50.5938 L45.8438,50.5938 C45.4063,50.5938 45.2813,50.6094 45.125,50.7031 C44.875,50.8594 44.7188,51.1563 44.7188,51.4375 C44.7188,51.7188 44.8594,51.9688 45.0781,52.1406 C45.2344,52.25 45.4219,52.2813 45.8438,52.2813 L46.0938,52.2813 L46.0938,58.7969 L45.8438,58.7969 C45.4375,58.7969 45.2813,58.8125 45.125,58.9219 C44.875,59.0938 44.7188,59.3594 44.7188,59.6563 C44.7188,59.9219 44.8594,60.1719 45.0781,60.3281 C45.2188,60.4531 45.4531,60.5 45.8438,60.5 L53.8438,60.5 L53.8438,57.9219 C53.8438,57.4844 53.8125,57.3438 53.7344,57.1875 C53.5625,56.9375 53.2813,56.7813 53,56.7813 C52.7344,56.7813 52.4688,56.8906 52.2969,57.1406 C52.1875,57.2969 52.1563,57.4375 52.1563,57.9219 L52.1563,58.7969 L47.7969,58.7969 L47.7969,56.375 Z " fill="#000000"/><text fill="#000000" font-family="sans-serif" font-size="14" lengthAdjust="spacing" textLength="70" x="69" y="60.3467">Categoria</text><line style="stroke:#181818;stroke-width:0.5;" x1="8" x2="168" y1="71.5" y2="71.5"/><ellipse cx="18" cy="85.1484" fill="#000000" rx="3" ry="3" style="stroke:#000000;stroke-width:1.0;"/><text fill="#000000" font-family="sans-serif" font-size="14" lengthAdjust="spacing" textLength="125" x="27" y="88.4951">Id : integer &#171;key&#187;</text><line style="stroke:#181818;stroke-width:1.0;" x1="8" x2="168" y1="95.7969" y2="95.7969"/><ellipse cx="18" cy="109.4453" fill="#000000" rx="3" ry="3" style="stroke:#000000;stroke-width:1.0;"/><text fill="#000000" font-family="sans-serif" font-size="14" lengthAdjust="spacing" textLength="136" x="27" y="112.792">Descricao : varchar</text></g><!--class Pagamento--><g id="elem_Pagamento"><rect codeLine="7" fill="#F1F1F1" height="145.7813" id="Pagamento" rx="2.5" ry="2.5" style="stroke:#181818;stroke-width:0.5;" width="258" x="204" y="7"/><ellipse cx="287.75" cy="23" fill="#ADD1B2" rx="11" ry="11" style="stroke:#181818;stroke-width:1.0;"/><path d="M286.5469,23.875 L288,23.875 L288,23.9844 C288,24.3906 288.0313,24.5469 288.1094,24.7031 C288.2656,24.9531 288.5469,25.1094 288.8438,25.1094 C289.0938,25.1094 289.3594,24.9688 289.5156,24.75 C289.6406,24.5938 289.6719,24.4375 289.6719,23.9844 L289.6719,22.0625 C289.6719,21.9063 289.6719,21.8594 289.6563,21.7031 C289.5938,21.2344 289.2813,20.9219 288.8281,20.9219 C288.5781,20.9219 288.3125,21.0625 288.1406,21.2813 C288.0313,21.4531 288,21.6094 288,22.0625 L288,22.1875 L286.5469,22.1875 L286.5469,19.7813 L290.5313,19.7813 L290.5313,20.6406 C290.5313,21.0469 290.5625,21.2188 290.6406,21.375 C290.8125,21.625 291.0938,21.7813 291.375,21.7813 C291.6406,21.7813 291.9063,21.6406 292.0781,21.4219 C292.1875,21.25 292.2188,21.1094 292.2188,20.6406 L292.2188,18.0938 L284.5938,18.0938 C284.1563,18.0938 284.0313,18.1094 283.875,18.2031 C283.625,18.3594 283.4688,18.6563 283.4688,18.9375 C283.4688,19.2188 283.6094,19.4688 283.8281,19.6406 C283.9844,19.75 284.1719,19.7813 284.5938,19.7813 L284.8438,19.7813 L284.8438,26.2969 L284.5938,26.2969 C284.1875,26.2969 284.0313,26.3125 283.875,26.4219 C283.625,26.5938 283.4688,26.8594 283.4688,27.1563 C283.4688,27.4219 283.6094,27.6719 283.8281,27.8281 C283.9688,27.9531 284.2031,28 284.5938,28 L292.5938,28 L292.5938,25.4219 C292.5938,24.9844 292.5625,24.8438 292.4844,24.6875 C292.3125,24.4375 292.0313,24.2813 291.75,24.2813 C291.4844,24.2813 291.2188,24.3906 291.0469,24.6406 C290.9375,24.7969 290.9063,24.9375 290.9063,25.4219 L290.9063,26.2969 L286.5469,26.2969 L286.5469,23.875 Z " fill="#000000"/><text fill="#000000" font-family="sans-serif" font-size="14" lengthAdjust="spacing" textLength="82" x="308.25" y="27.8467">Pagamento</text><line style="stroke:#181818;stroke-width:0.5;" x1="205" x2="461" y1="39" y2="39"/><ellipse cx="215" cy="52.6484" fill="#000000" rx="3" ry="3" style="stroke:#000000;stroke-width:1.0;"/><text fill="#000000" font-family="sans-serif" font-size="14" lengthAdjust="spacing" textLength="125" x="224" y="55.9951">Id : integer &#171;key&#187;</text><line style="stroke:#181818;stroke-width:1.0;" x1="205" x2="461" y1="63.2969" y2="63.2969"/><ellipse cx="215" cy="76.9453" fill="#000000" rx="3" ry="3" style="stroke:#000000;stroke-width:1.0;"/><text fill="#000000" font-family="sans-serif" font-size="14" lengthAdjust="spacing" textLength="168" x="224" y="80.292">DataVencimento : date</text><ellipse cx="215" cy="93.2422" fill="#000000" rx="3" ry="3" style="stroke:#000000;stroke-width:1.0;"/><text fill="#000000" font-family="sans-serif" font-size="14" lengthAdjust="spacing" textLength="165" x="224" y="96.5889">ValorPrevisto : decimal</text><ellipse cx="215" cy="109.5391" fill="#000000" rx="3" ry="3" style="stroke:#000000;stroke-width:1.0;"/><text fill="#000000" font-family="sans-serif" font-size="14" lengthAdjust="spacing" textLength="175" x="224" y="112.8857">ValorRealizado : decimal</text><ellipse cx="215" cy="125.8359" fill="#000000" rx="3" ry="3" style="stroke:#000000;stroke-width:1.0;"/><text fill="#000000" font-family="sans-serif" font-size="14" lengthAdjust="spacing" textLength="232" x="224" y="129.1826">CodigoBarraReferencia : varchar</text><ellipse cx="215" cy="142.1328" fill="#000000" rx="3" ry="3" style="stroke:#000000;stroke-width:1.0;"/><text fill="#000000" font-family="sans-serif" font-size="14" lengthAdjust="spacing" textLength="112" x="224" y="145.4795">Status : varchar</text></g><!--class Receita--><g id="elem_Receita"><rect codeLine="17" fill="#F1F1F1" height="96.8906" id="Receita" rx="2.5" ry="2.5" style="stroke:#181818;stroke-width:0.5;" width="200" x="346" y="237.5"/><ellipse cx="414.25" cy="253.5" fill="#ADD1B2" rx="11" ry="11" style="stroke:#181818;stroke-width:1.0;"/><path d="M413.0469,254.375 L414.5,254.375 L414.5,254.4844 C414.5,254.8906 414.5313,255.0469 414.6094,255.2031 C414.7656,255.4531 415.0469,255.6094 415.3438,255.6094 C415.5938,255.6094 415.8594,255.4688 416.0156,255.25 C416.1406,255.0938 416.1719,254.9375 416.1719,254.4844 L416.1719,252.5625 C416.1719,252.4063 416.1719,252.3594 416.1563,252.2031 C416.0938,251.7344 415.7813,251.4219 415.3281,251.4219 C415.0781,251.4219 414.8125,251.5625 414.6406,251.7813 C414.5313,251.9531 414.5,252.1094 414.5,252.5625 L414.5,252.6875 L413.0469,252.6875 L413.0469,250.2813 L417.0313,250.2813 L417.0313,251.1406 C417.0313,251.5469 417.0625,251.7188 417.1406,251.875 C417.3125,252.125 417.5938,252.2813 417.875,252.2813 C418.1406,252.2813 418.4063,252.1406 418.5781,251.9219 C418.6875,251.75 418.7188,251.6094 418.7188,251.1406 L418.7188,248.5938 L411.0938,248.5938 C410.6563,248.5938 410.5313,248.6094 410.375,248.7031 C410.125,248.8594 409.9688,249.1563 409.9688,249.4375 C409.9688,249.7188 410.1094,249.9688 410.3281,250.1406 C410.4844,250.25 410.6719,250.2813 411.0938,250.2813 L411.3438,250.2813 L411.3438,256.7969 L411.0938,256.7969 C410.6875,256.7969 410.5313,256.8125 410.375,256.9219 C410.125,257.0938 409.9688,257.3594 409.9688,257.6563 C409.9688,257.9219 410.1094,258.1719 410.3281,258.3281 C410.4688,258.4531 410.7031,258.5 411.0938,258.5 L419.0938,258.5 L419.0938,255.9219 C419.0938,255.4844 419.0625,255.3438 418.9844,255.1875 C418.8125,254.9375 418.5313,254.7813 418.25,254.7813 C417.9844,254.7813 417.7188,254.8906 417.5469,255.1406 C417.4375,255.2969 417.4063,255.4375 417.4063,255.9219 L417.4063,256.7969 L413.0469,256.7969 L413.0469,254.375 Z " fill="#000000"/><text fill="#000000" font-family="sans-serif" font-size="14" lengthAdjust="spacing" textLength="55" x="434.75" y="258.3467">Receita</text><line style="stroke:#181818;stroke-width:0.5;" x1="347" x2="545" y1="269.5" y2="269.5"/><ellipse cx="357" cy="283.1484" fill="#000000" rx="3" ry="3" style="stroke:#000000;stroke-width:1.0;"/><text fill="#000000" font-family="sans-serif" font-size="14" lengthAdjust="spacing" textLength="125" x="366" y="286.4951">Id : integer &#171;key&#187;</text><line style="stroke:#181818;stroke-width:1.0;" x1="347" x2="545" y1="293.7969" y2="293.7969"/><ellipse cx="357" cy="307.4453" fill="#000000" rx="3" ry="3" style="stroke:#000000;stroke-width:1.0;"/><text fill="#000000" font-family="sans-serif" font-size="14" lengthAdjust="spacing" textLength="162" x="366" y="310.792">DataPagamento : date</text><ellipse cx="357" cy="323.7422" fill="#000000" rx="3" ry="3" style="stroke:#000000;stroke-width:1.0;"/><text fill="#000000" font-family="sans-serif" font-size="14" lengthAdjust="spacing" textLength="174" x="366" y="327.0889">ValorRecebido : decimal</text></g><!--class Despesa--><g id="elem_Despesa"><rect codeLine="24" fill="#F1F1F1" height="145.7813" id="Despesa" rx="2.5" ry="2.5" style="stroke:#181818;stroke-width:0.5;" width="201" x="109.5" y="213"/><ellipse cx="175.25" cy="229" fill="#ADD1B2" rx="11" ry="11" style="stroke:#181818;stroke-width:1.0;"/><path d="M174.0469,229.875 L175.5,229.875 L175.5,229.9844 C175.5,230.3906 175.5313,230.5469 175.6094,230.7031 C175.7656,230.9531 176.0469,231.1094 176.3438,231.1094 C176.5938,231.1094 176.8594,230.9688 177.0156,230.75 C177.1406,230.5938 177.1719,230.4375 177.1719,229.9844 L177.1719,228.0625 C177.1719,227.9063 177.1719,227.8594 177.1563,227.7031 C177.0938,227.2344 176.7813,226.9219 176.3281,226.9219 C176.0781,226.9219 175.8125,227.0625 175.6406,227.2813 C175.5313,227.4531 175.5,227.6094 175.5,228.0625 L175.5,228.1875 L174.0469,228.1875 L174.0469,225.7813 L178.0313,225.7813 L178.0313,226.6406 C178.0313,227.0469 178.0625,227.2188 178.1406,227.375 C178.3125,227.625 178.5938,227.7813 178.875,227.7813 C179.1406,227.7813 179.4063,227.6406 179.5781,227.4219 C179.6875,227.25 179.7188,227.1094 179.7188,226.6406 L179.7188,224.0938 L172.0938,224.0938 C171.6563,224.0938 171.5313,224.1094 171.375,224.2031 C171.125,224.3594 170.9688,224.6563 170.9688,224.9375 C170.9688,225.2188 171.1094,225.4688 171.3281,225.6406 C171.4844,225.75 171.6719,225.7813 172.0938,225.7813 L172.3438,225.7813 L172.3438,232.2969 L172.0938,232.2969 C171.6875,232.2969 171.5313,232.3125 171.375,232.4219 C171.125,232.5938 170.9688,232.8594 170.9688,233.1563 C170.9688,233.4219 171.1094,233.6719 171.3281,233.8281 C171.4688,233.9531 171.7031,234 172.0938,234 L180.0938,234 L180.0938,231.4219 C180.0938,230.9844 180.0625,230.8438 179.9844,230.6875 C179.8125,230.4375 179.5313,230.2813 179.25,230.2813 C178.9844,230.2813 178.7188,230.3906 178.5469,230.6406 C178.4375,230.7969 178.4063,230.9375 178.4063,231.4219 L178.4063,232.2969 L174.0469,232.2969 L174.0469,229.875 Z " fill="#000000"/><text fill="#000000" font-family="sans-serif" font-size="14" lengthAdjust="spacing" textLength="61" x="195.75" y="233.8467">Despesa</text><line style="stroke:#181818;stroke-width:0.5;" x1="110.5" x2="309.5" y1="245" y2="245"/><ellipse cx="120.5" cy="258.6484" fill="#000000" rx="3" ry="3" style="stroke:#000000;stroke-width:1.0;"/><text fill="#000000" font-family="sans-serif" font-size="14" lengthAdjust="spacing" textLength="125" x="129.5" y="261.9951">Id : integer &#171;key&#187;</text><line style="stroke:#181818;stroke-width:1.0;" x1="110.5" x2="309.5" y1="269.2969" y2="269.2969"/><ellipse cx="120.5" cy="282.9453" fill="#000000" rx="3" ry="3" style="stroke:#000000;stroke-width:1.0;"/><text fill="#000000" font-family="sans-serif" font-size="14" lengthAdjust="spacing" textLength="149" x="129.5" y="286.292">CategoriaId : integer</text><ellipse cx="120.5" cy="299.2422" fill="#000000" rx="3" ry="3" style="stroke:#000000;stroke-width:1.0;"/><text fill="#000000" font-family="sans-serif" font-size="14" lengthAdjust="spacing" textLength="138" x="129.5" y="302.5889">DataPrevista : date</text><ellipse cx="120.5" cy="315.5391" fill="#000000" rx="3" ry="3" style="stroke:#000000;stroke-width:1.0;"/><text fill="#000000" font-family="sans-serif" font-size="14" lengthAdjust="spacing" textLength="165" x="129.5" y="318.8857">ValorPrevisto : decimal</text><ellipse cx="120.5" cy="331.8359" fill="#000000" rx="3" ry="3" style="stroke:#000000;stroke-width:1.0;"/><text fill="#000000" font-family="sans-serif" font-size="14" lengthAdjust="spacing" textLength="175" x="129.5" y="335.1826">ValorRealizado : decimal</text><ellipse cx="120.5" cy="348.1328" fill="#000000" rx="3" ry="3" style="stroke:#000000;stroke-width:1.0;"/><text fill="#000000" font-family="sans-serif" font-size="14" lengthAdjust="spacing" textLength="112" x="129.5" y="351.4795">Status : varchar</text></g><!--class RegistroMensal--><g id="elem_RegistroMensal"><rect codeLine="34" fill="#F1F1F1" height="145.7813" id="RegistroMensal" rx="2.5" ry="2.5" style="stroke:#181818;stroke-width:0.5;" width="200" x="228" y="419"/><ellipse cx="269.1" cy="435" fill="#ADD1B2" rx="11" ry="11" style="stroke:#181818;stroke-width:1.0;"/><path d="M267.8969,435.875 L269.35,435.875 L269.35,435.9844 C269.35,436.3906 269.3813,436.5469 269.4594,436.7031 C269.6156,436.9531 269.8969,437.1094 270.1938,437.1094 C270.4438,437.1094 270.7094,436.9688 270.8656,436.75 C270.9906,436.5938 271.0219,436.4375 271.0219,435.9844 L271.0219,434.0625 C271.0219,433.9063 271.0219,433.8594 271.0063,433.7031 C270.9438,433.2344 270.6313,432.9219 270.1781,432.9219 C269.9281,432.9219 269.6625,433.0625 269.4906,433.2813 C269.3813,433.4531 269.35,433.6094 269.35,434.0625 L269.35,434.1875 L267.8969,434.1875 L267.8969,431.7813 L271.8813,431.7813 L271.8813,432.6406 C271.8813,433.0469 271.9125,433.2188 271.9906,433.375 C272.1625,433.625 272.4438,433.7813 272.725,433.7813 C272.9906,433.7813 273.2563,433.6406 273.4281,433.4219 C273.5375,433.25 273.5688,433.1094 273.5688,432.6406 L273.5688,430.0938 L265.9438,430.0938 C265.5063,430.0938 265.3813,430.1094 265.225,430.2031 C264.975,430.3594 264.8188,430.6563 264.8188,430.9375 C264.8188,431.2188 264.9594,431.4688 265.1781,431.6406 C265.3344,431.75 265.5219,431.7813 265.9438,431.7813 L266.1938,431.7813 L266.1938,438.2969 L265.9438,438.2969 C265.5375,438.2969 265.3813,438.3125 265.225,438.4219 C264.975,438.5938 264.8188,438.8594 264.8188,439.1563 C264.8188,439.4219 264.9594,439.6719 265.1781,439.8281 C265.3188,439.9531 265.5531,440 265.9438,440 L273.9438,440 L273.9438,437.4219 C273.9438,436.9844 273.9125,436.8438 273.8344,436.6875 C273.6625,436.4375 273.3813,436.2813 273.1,436.2813 C272.8344,436.2813 272.5688,436.3906 272.3969,436.6406 C272.2875,436.7969 272.2563,436.9375 272.2563,437.4219 L272.2563,438.2969 L267.8969,438.2969 L267.8969,435.875 Z " fill="#000000"/><text fill="#000000" font-family="sans-serif" font-size="14" lengthAdjust="spacing" textLength="110" x="288.9" y="439.8467">RegistroMensal</text><line style="stroke:#181818;stroke-width:0.5;" x1="229" x2="427" y1="451" y2="451"/><ellipse cx="239" cy="464.6484" fill="#000000" rx="3" ry="3" style="stroke:#000000;stroke-width:1.0;"/><text fill="#000000" font-family="sans-serif" font-size="14" lengthAdjust="spacing" textLength="125" x="248" y="467.9951">Id : integer &#171;key&#187;</text><line style="stroke:#181818;stroke-width:1.0;" x1="229" x2="427" y1="475.2969" y2="475.2969"/><ellipse cx="239" cy="488.9453" fill="#000000" rx="3" ry="3" style="stroke:#000000;stroke-width:1.0;"/><text fill="#000000" font-family="sans-serif" font-size="14" lengthAdjust="spacing" textLength="94" x="248" y="492.292">Mes : varchar</text><ellipse cx="239" cy="505.2422" fill="#000000" rx="3" ry="3" style="stroke:#000000;stroke-width:1.0;"/><text fill="#000000" font-family="sans-serif" font-size="14" lengthAdjust="spacing" textLength="94" x="248" y="508.5889">Ano : integer</text><ellipse cx="239" cy="521.5391" fill="#000000" rx="3" ry="3" style="stroke:#000000;stroke-width:1.0;"/><text fill="#000000" font-family="sans-serif" font-size="14" lengthAdjust="spacing" textLength="168" x="248" y="524.8857">TotalReceitas : decimal</text><ellipse cx="239" cy="537.8359" fill="#000000" rx="3" ry="3" style="stroke:#000000;stroke-width:1.0;"/><text fill="#000000" font-family="sans-serif" font-size="14" lengthAdjust="spacing" textLength="174" x="248" y="541.1826">TotalDespesas : decimal</text><ellipse cx="239" cy="554.1328" fill="#000000" rx="3" ry="3" style="stroke:#000000;stroke-width:1.0;"/><text fill="#000000" font-family="sans-serif" font-size="14" lengthAdjust="spacing" textLength="141" x="248" y="557.4795">SaldoFinal : decimal</text></g><!--link Categoria to Despesa--><g id="link_Categoria_Despesa"><path codeLine="44" d="M115.9182,127.6838 C131.5212,153.7728 139.0271,166.3249 157.5011,197.2149 " fill="none" id="Categoria-Despesa" style="stroke:#181818;stroke-width:1.0;"/><line style="stroke:#181818;stroke-width:1.0;" x1="110.4322" x2="117.298" y1="126.304" y2="122.1978"/><line style="stroke:#181818;stroke-width:1.0;" x1="111.972" x2="118.8378" y1="128.8787" y2="124.7725"/><line style="stroke:#181818;stroke-width:1.0;" x1="115.9182" x2="111.812" y1="127.6838" y2="120.818"/><line style="stroke:#181818;stroke-width:1.0;" x1="162.6338" x2="171.8894" y1="205.7972" y2="209.5834"/><line style="stroke:#181818;stroke-width:1.0;" x1="162.6338" x2="161.5906" y1="205.7972" y2="215.7426"/><line style="stroke:#181818;stroke-width:1.0;" x1="162.6338" x2="166.74" y1="205.7972" y2="212.663"/><ellipse cx="159.5542" cy="200.6478" fill="none" rx="4" ry="4" style="stroke:#181818;stroke-width:1.0;"/></g><!--link Pagamento to Despesa--><g id="link_Pagamento_Despesa"><path codeLine="45" d="M285.331,160.0609 C273.651,179.4309 274.4503,178.1072 262.7743,197.4722 " fill="none" id="Pagamento-Despesa" style="stroke:#181818;stroke-width:1.0;"/><line style="stroke:#181818;stroke-width:1.0;" x1="283.971" x2="290.8219" y1="154.5699" y2="158.701"/><line style="stroke:#181818;stroke-width:1.0;" x1="282.4219" x2="289.2728" y1="157.139" y2="161.27"/><line style="stroke:#181818;stroke-width:1.0;" x1="285.331" x2="289.462" y1="160.0609" y2="153.21"/><line style="stroke:#181818;stroke-width:1.0;" x1="257.6108" x2="258.6183" y1="206.036" y2="215.9851"/><line style="stroke:#181818;stroke-width:1.0;" x1="257.6108" x2="248.3417" y1="206.036" y2="209.7889"/><line style="stroke:#181818;stroke-width:1.0;" x1="257.6108" x2="253.48" y1="206.036" y2="212.887"/><ellipse cx="260.7089" cy="200.8977" fill="none" rx="4" ry="4" style="stroke:#181818;stroke-width:1.0;"/></g><!--link Receita to RegistroMensal--><g id="link_Receita_RegistroMensal"><path codeLine="46" d="M414.4776,341.4961 C399.9726,366.5741 394.8936,375.3528 378.7046,403.3408 " fill="none" id="Receita-RegistroMensal" style="stroke:#181818;stroke-width:1.0;"/><line style="stroke:#181818;stroke-width:1.0;" x1="413.0178" x2="419.9428" y1="336.0308" y2="340.0362"/><line style="stroke:#181818;stroke-width:1.0;" x1="411.5157" x2="418.4408" y1="338.6277" y2="342.6331"/><line style="stroke:#181818;stroke-width:1.0;" x1="414.4776" x2="418.483" y1="341.4961" y2="334.571"/><line style="stroke:#181818;stroke-width:1.0;" x1="373.6976" x2="374.8857" y1="411.997" y2="421.9262"/><line style="stroke:#181818;stroke-width:1.0;" x1="373.6976" x2="364.4983" y1="411.997" y2="415.9178"/><line style="stroke:#181818;stroke-width:1.0;" x1="373.6976" x2="369.692" y1="411.997" y2="418.922"/><ellipse cx="376.7018" cy="406.8033" fill="none" rx="4" ry="4" style="stroke:#181818;stroke-width:1.0;"/></g><!--link Despesa to RegistroMensal--><g id="link_Despesa_RegistroMensal"><path codeLine="47" d="M255.7738,366.1348 C266.9788,385.5048 266.073,383.9411 277.275,403.3061 " fill="none" id="Despesa-RegistroMensal" style="stroke:#181818;stroke-width:1.0;"/><line style="stroke:#181818;stroke-width:1.0;" x1="250.3085" x2="257.2333" y1="364.6753" y2="360.6695"/><line style="stroke:#181818;stroke-width:1.0;" x1="251.8107" x2="258.7355" y1="367.2721" y2="363.2663"/><line style="stroke:#181818;stroke-width:1.0;" x1="255.7738" x2="251.768" y1="366.1348" y2="359.21"/><line style="stroke:#181818;stroke-width:1.0;" x1="282.2822" x2="291.4816" y1="411.9621" y2="415.8827"/><line style="stroke:#181818;stroke-width:1.0;" x1="282.2822" x2="281.0944" y1="411.9621" y2="421.8913"/><line style="stroke:#181818;stroke-width:1.0;" x1="282.2822" x2="286.288" y1="411.9621" y2="418.887"/><ellipse cx="279.2779" cy="406.7685" fill="none" rx="4" ry="4" style="stroke:#181818;stroke-width:1.0;"/></g><!--SRC=[hP71JiCm44Jl_WghHwJy0AegGH4IXqfLYdeVaYMiC5vacqgbvTznKfCqfa8vSBJVU7PsJ3PmsElP4e4QSOoPFYYjh_H3hQyrstXBJi_dhxHVB28eYexUaQySLv0esi5LBt3gIobARciqU8i7cUY6W2tPYhitKLd7D1tPmeXREzgnFm6A8fY1bGJ3dwXpk9IQ6xc5SoZfcLphZhEmhMOJ43xyvGrAgeW3fkVlL_uLlxLwub72iq6noNVo4mVrltGk6oASUiA_5FXtEKsqSx8Yws6cHL-Hp-g_iP8jyIW19ZNlipmTIsNbR0DJoprRc777VLtwU2mAEUZqNWsVbO4q_ETwlAXAgilq6m00]--></g></svg>